<svg width="1160" height="145" viewBox="0 0 1160 145" fill="none" xmlns="http://www.w3.org/2000/svg">
<path d="M1073.31 128.064C1073.31 128.544 1073.28 128.976 1073.22 129.36H1063.5C1063.58 130.32 1063.91 131.072 1064.5 131.616C1065.1 132.16 1065.82 132.432 1066.69 132.432C1067.94 132.432 1068.82 131.896 1069.35 130.824H1072.98C1072.59 132.104 1071.86 133.16 1070.77 133.992C1069.68 134.808 1068.34 135.216 1066.76 135.216C1065.48 135.216 1064.33 134.936 1063.3 134.376C1062.3 133.8 1061.5 132.992 1060.93 131.952C1060.37 130.912 1060.09 129.712 1060.09 128.352C1060.09 126.976 1060.37 125.768 1060.93 124.728C1061.49 123.688 1062.27 122.888 1063.28 122.328C1064.29 121.768 1065.45 121.488 1066.76 121.488C1068.02 121.488 1069.15 121.76 1070.14 122.304C1071.15 122.848 1071.93 123.624 1072.47 124.632C1073.03 125.624 1073.31 126.768 1073.31 128.064ZM1069.83 127.104C1069.82 126.24 1069.5 125.552 1068.9 125.04C1068.29 124.512 1067.54 124.248 1066.66 124.248C1065.83 124.248 1065.13 124.504 1064.55 125.016C1063.99 125.512 1063.65 126.208 1063.52 127.104H1069.83ZM1098 121.512C1099.63 121.512 1100.94 122.016 1101.93 123.024C1102.94 124.016 1103.44 125.408 1103.44 127.2V135H1100.08V127.656C1100.08 126.616 1099.82 125.824 1099.29 125.28C1098.76 124.72 1098.04 124.44 1097.13 124.44C1096.22 124.44 1095.49 124.72 1094.95 125.28C1094.42 125.824 1094.16 126.616 1094.16 127.656V135H1090.8V127.656C1090.8 126.616 1090.53 125.824 1090 125.28C1089.48 124.72 1088.76 124.44 1087.84 124.44C1086.92 124.44 1086.18 124.72 1085.64 125.28C1085.11 125.824 1084.84 126.616 1084.84 127.656V135H1081.48V121.704H1084.84V123.312C1085.28 122.752 1085.83 122.312 1086.5 121.992C1087.19 121.672 1087.94 121.512 1088.76 121.512C1089.8 121.512 1090.72 121.736 1091.54 122.184C1092.36 122.616 1092.99 123.24 1093.44 124.056C1093.87 123.288 1094.49 122.672 1095.31 122.208C1096.14 121.744 1097.04 121.512 1098 121.512ZM1105.77 128.304C1105.77 126.96 1106.03 125.768 1106.56 124.728C1107.1 123.688 1107.83 122.888 1108.74 122.328C1109.67 121.768 1110.7 121.488 1111.84 121.488C1112.83 121.488 1113.7 121.688 1114.43 122.088C1115.18 122.488 1115.78 122.992 1116.23 123.6V121.704H1119.62V135H1116.23V133.056C1115.8 133.68 1115.2 134.2 1114.43 134.616C1113.68 135.016 1112.81 135.216 1111.82 135.216C1110.7 135.216 1109.67 134.928 1108.74 134.352C1107.83 133.776 1107.1 132.968 1106.56 131.928C1106.03 130.872 1105.77 129.664 1105.77 128.304ZM1116.23 128.352C1116.23 127.536 1116.07 126.84 1115.75 126.264C1115.43 125.672 1115 125.224 1114.46 124.92C1113.91 124.6 1113.33 124.44 1112.7 124.44C1112.08 124.44 1111.5 124.592 1110.98 124.896C1110.45 125.2 1110.02 125.648 1109.68 126.24C1109.36 126.816 1109.2 127.504 1109.2 128.304C1109.2 129.104 1109.36 129.808 1109.68 130.416C1110.02 131.008 1110.45 131.464 1110.98 131.784C1111.52 132.104 1112.1 132.264 1112.7 132.264C1113.33 132.264 1113.91 132.112 1114.46 131.808C1115 131.488 1115.43 131.04 1115.75 130.464C1116.07 129.872 1116.23 129.168 1116.23 128.352ZM1124.6 120.12C1124.01 120.12 1123.51 119.936 1123.11 119.568C1122.73 119.184 1122.54 118.712 1122.54 118.152C1122.54 117.592 1122.73 117.128 1123.11 116.76C1123.51 116.376 1124.01 116.184 1124.6 116.184C1125.19 116.184 1125.68 116.376 1126.07 116.76C1126.47 117.128 1126.67 117.592 1126.67 118.152C1126.67 118.712 1126.47 119.184 1126.07 119.568C1125.68 119.936 1125.19 120.12 1124.6 120.12ZM1126.26 121.704V135H1122.9V121.704H1126.26ZM1134.67 135.216C1133.58 135.216 1132.6 135.024 1131.74 134.64C1130.87 134.24 1130.19 133.704 1129.67 133.032C1129.18 132.36 1128.91 131.616 1128.86 130.8H1132.24C1132.31 131.312 1132.55 131.736 1132.99 132.072C1133.43 132.408 1133.99 132.576 1134.64 132.576C1135.28 132.576 1135.78 132.448 1136.13 132.192C1136.5 131.936 1136.68 131.608 1136.68 131.208C1136.68 130.776 1136.46 130.456 1136.01 130.248C1135.58 130.024 1134.88 129.784 1133.92 129.528C1132.93 129.288 1132.11 129.04 1131.47 128.784C1130.85 128.528 1130.31 128.136 1129.84 127.608C1129.39 127.08 1129.17 126.368 1129.17 125.472C1129.17 124.736 1129.38 124.064 1129.79 123.456C1130.23 122.848 1130.83 122.368 1131.62 122.016C1132.42 121.664 1133.35 121.488 1134.43 121.488C1136.01 121.488 1137.27 121.888 1138.22 122.688C1139.16 123.472 1139.68 124.536 1139.78 125.88H1136.56C1136.51 125.352 1136.29 124.936 1135.89 124.632C1135.51 124.312 1134.99 124.152 1134.33 124.152C1133.72 124.152 1133.25 124.264 1132.91 124.488C1132.59 124.712 1132.43 125.024 1132.43 125.424C1132.43 125.872 1132.66 126.216 1133.11 126.456C1133.55 126.68 1134.25 126.912 1135.19 127.152C1136.15 127.392 1136.95 127.64 1137.57 127.896C1138.19 128.152 1138.73 128.552 1139.18 129.096C1139.64 129.624 1139.88 130.328 1139.9 131.208C1139.9 131.976 1139.68 132.664 1139.25 133.272C1138.83 133.88 1138.23 134.36 1137.43 134.712C1136.64 135.048 1135.72 135.216 1134.67 135.216ZM1144.14 135.168C1143.54 135.168 1143.03 134.984 1142.63 134.616C1142.25 134.232 1142.06 133.76 1142.06 133.2C1142.06 132.64 1142.25 132.176 1142.63 131.808C1143.03 131.424 1143.54 131.232 1144.14 131.232C1144.74 131.232 1145.22 131.424 1145.61 131.808C1145.99 132.176 1146.18 132.64 1146.18 133.2C1146.18 133.76 1145.99 134.232 1145.61 134.616C1145.22 134.984 1144.74 135.168 1144.14 135.168ZM1150.38 135.168C1149.77 135.168 1149.27 134.984 1148.87 134.616C1148.48 134.232 1148.29 133.76 1148.29 133.2C1148.29 132.64 1148.48 132.176 1148.87 131.808C1149.27 131.424 1149.77 131.232 1150.38 131.232C1150.97 131.232 1151.46 131.424 1151.84 131.808C1152.23 132.176 1152.42 132.64 1152.42 133.2C1152.42 133.76 1152.23 134.232 1151.84 134.616C1151.46 134.984 1150.97 135.168 1150.38 135.168ZM1156.61 135.168C1156 135.168 1155.5 134.984 1155.1 134.616C1154.72 134.232 1154.52 133.76 1154.52 133.2C1154.52 132.64 1154.72 132.176 1155.1 131.808C1155.5 131.424 1156 131.232 1156.61 131.232C1157.2 131.232 1157.69 131.424 1158.08 131.808C1158.46 132.176 1158.65 132.64 1158.65 133.2C1158.65 133.76 1158.46 134.232 1158.08 134.616C1157.69 134.984 1157.2 135.168 1156.61 135.168Z" fill="#47585B"/>
<g clip-path="url(#clip0_39_24)">
<path d="M1128.94 18.9054L1129.02 19.5365L1128.07 19.7322L1127.95 21.0765H1129.08L1130.59 20.9314L1131.37 20.0067L1130.54 19.685L1130.09 19.1641L1129.41 18.0628L1129.08 16.5053L1127.8 16.7658L1127.44 17.3147V17.9335L1128.06 18.3548L1128.94 18.9054Z" fill="#FFBA08"/>
<path d="M1127.85 19.4228L1127.92 18.5803L1127.17 18.2569L1126.12 18.4998L1125.34 19.748V20.5573H1126.25L1127.85 19.4228Z" fill="#FFBA08"/>
<path d="M1106.26 23.0011L1106.03 23.5955H1104.91V24.1723H1105.18C1105.18 24.1723 1105.19 24.2947 1105.22 24.4555L1105.9 24.3978L1106.33 24.1321L1106.44 23.5955L1107 23.5483L1107.21 23.0973L1106.71 22.9924L1106.26 23.0011Z" fill="#FFBA08"/>
<path d="M1103.38 24.0482L1103.34 24.6129L1104.15 24.5447L1104.23 23.9783L1103.74 23.5955L1103.38 24.0482Z" fill="#FFBA08"/>
<path d="M1151.99 42.0604C1151.98 40.8175 1151.91 39.5833 1151.8 38.3684C1151.4 34.3181 1150.44 30.4357 1148.98 26.7962C1148.88 26.5252 1148.78 26.2508 1148.66 25.9833C1146.73 21.4156 1144.01 17.257 1140.69 13.6682C1140.47 13.4339 1140.25 13.2032 1140.03 12.9759C1139.4 12.3239 1138.75 11.6876 1138.09 11.0775C1130.53 4.19887 1120.5 0 1109.5 0C1098.41 0 1088.3 4.27404 1080.73 11.2576C1078.96 12.885 1077.34 14.6611 1075.87 16.563C1070.31 23.7441 1067 32.7396 1067 42.4991C1067 65.9355 1086.07 85 1109.5 85C1125.99 85 1140.3 75.5604 1147.34 61.8066C1148.85 58.8663 1150.02 55.732 1150.81 52.4474C1151.01 51.6136 1151.19 50.7762 1151.34 49.9284C1151.76 47.5143 1152 45.0321 1152 42.4991C1152 42.3523 1151.99 42.2072 1151.99 42.0604ZM1143.99 25.0743L1144.24 24.7981C1144.56 25.4257 1144.86 26.0638 1145.15 26.7105L1144.75 26.6948L1143.99 26.7997V25.0743ZM1137.85 17.659L1137.86 15.7606C1138.52 16.4686 1139.17 17.1975 1139.78 17.9527L1139.02 19.0924L1136.34 19.068L1136.17 18.5103L1137.85 17.659ZM1146.7 31.7083H1143.59L1141.69 30.2976L1139.7 30.4916V31.7083H1139.07L1138.39 31.2223L1134.93 30.3465V28.109L1130.55 28.4499L1129.2 29.1788H1127.46L1126.61 29.0932L1124.5 30.2644V32.4687L1120.19 35.5803L1120.55 36.9088H1121.42L1121.19 38.1744L1120.57 38.3999L1120.54 41.7072L1124.27 45.9516H1125.89L1125.99 45.6929H1128.9L1129.75 44.915H1131.4L1132.31 45.824L1134.77 46.0792L1134.44 49.3568L1137.18 54.1867L1135.74 56.94L1135.84 58.237L1136.97 59.368V62.4866L1138.46 64.4899V67.0805H1139.75C1132.59 75.8716 1121.69 81.5021 1109.5 81.5021C1087.99 81.5039 1070.5 64.0057 1070.5 42.4991C1070.5 37.0853 1071.61 31.925 1073.61 27.235V26.0183L1075 24.3244C1075.49 23.4102 1076.01 22.5187 1076.56 21.6499L1076.62 22.3578L1075.01 24.3244C1074.5 25.2719 1074.04 26.2403 1073.61 27.235V29.455L1075.23 30.2347V33.32L1076.79 35.9718L1078.05 36.1659L1078.21 35.2569L1076.72 32.9564L1076.43 30.7206H1077.3L1077.67 33.0211L1079.83 36.1659L1079.27 37.1815L1080.64 39.2774L1084.05 40.12V39.5694L1085.41 39.7634L1085.28 40.7353L1086.35 40.9311L1088 41.3821L1090.33 44.0409L1093.31 44.2664L1093.61 46.698L1091.57 48.1244L1091.47 50.2955L1091.18 51.6241L1094.13 55.3177L1094.35 56.5833C1094.35 56.5833 1095.42 56.8735 1095.55 56.8735C1095.68 56.8735 1097.95 58.5919 1097.95 58.5919V65.2678L1098.76 65.495L1098.21 68.5751L1099.57 70.3914L1099.32 73.4435L1101.12 76.6058L1103.43 78.623L1105.75 78.665L1105.98 77.9186L1104.27 76.4816L1104.37 75.7684L1104.68 74.8944L1104.74 74.0029L1103.59 73.9679L1103.01 73.2372L1103.96 72.316L1104.09 71.6203L1103.02 71.3143L1103.09 70.6676L1104.61 70.4368L1106.93 69.3233L1107.71 67.8969L1110.14 64.7853L1109.58 62.352L1110.33 61.0567L1112.57 61.1248L1114.07 59.9326L1114.56 55.2373L1116.23 53.1169L1116.52 51.7552L1115 51.2675L1113.99 49.619L1110.56 49.5841L1107.83 48.5457L1107.7 46.6036L1106.79 45.0146L1104.33 44.9779L1102.91 42.7439L1101.65 42.1268L1101.58 42.8085L1099.28 42.9449L1098.44 41.7719L1096.04 41.2842L1094.06 43.5689L1090.95 43.041L1090.72 39.5344L1088.45 39.1463L1089.36 37.4262L1089.1 36.4386L1086.12 38.4331L1084.24 38.2041L1083.57 36.7375L1083.98 35.2254L1085.02 33.3183L1087.4 32.1121L1092 32.1103L1091.99 33.514L1093.64 34.2832L1093.51 31.8848L1094.7 30.6857L1097.11 29.1054L1097.27 27.9936L1099.67 25.4974L1102.22 24.0849L1101.99 23.8996L1103.72 22.2739L1104.35 22.4417L1104.64 22.8053L1105.3 22.0781L1105.46 22.0065L1104.74 21.9051L1104.01 21.6621V20.9629L1104.4 20.6465H1105.25L1105.64 20.8178L1105.98 21.4995L1106.39 21.4366V21.3772L1106.51 21.4174L1107.71 21.2338L1107.88 20.65L1108.56 20.8213V21.4541L1107.92 21.8894H1107.93L1108.02 22.5833L1110.18 23.2511C1110.18 23.2511 1110.19 23.2598 1110.19 23.2773L1110.69 23.2354L1110.72 22.2967L1109 21.5153L1108.91 21.0643L1110.33 20.5783L1110.39 19.2148L1108.9 18.3076L1108.81 16.0088L1106.77 17.0122H1106.02L1106.22 15.2624L1103.44 14.6069L1102.29 15.4757V18.1258L1100.22 18.7813L1099.39 20.5084L1098.49 20.6535V18.4439L1096.55 18.1747L1095.58 17.5419L1095.18 16.1102L1098.66 14.0755L1100.36 13.558L1100.53 14.7013L1101.48 14.6523L1101.55 14.0772L1102.55 13.9356L1102.56 13.7346L1102.14 13.558L1102.04 12.9497L1103.26 12.8466L1103.99 12.0809L1104.03 12.025L1104.04 12.0285L1104.27 11.7977L1106.83 11.4743L1107.96 12.4358L1104.99 14.0178L1108.77 14.9093L1109.26 13.6455H1110.91L1111.49 12.5442L1110.33 12.2522V10.859L1106.66 9.23681L1104.14 9.52874L1102.71 10.2752L1102.81 12.0897L1101.32 11.8624L1101.09 10.859L1102.52 9.56195L1099.92 9.4326L1099.18 9.6581L1098.86 10.5321L1099.83 10.6965L1099.63 11.6684L1097.98 11.7663L1097.72 12.4131L1095.33 12.4795C1095.33 12.4795 1095.26 11.1195 1095.16 11.1195C1095.07 11.1195 1097.04 11.0863 1097.04 11.0863L1098.47 9.69131L1097.69 9.30149L1096.65 10.3084L1094.93 10.2105L1093.9 8.78406H1091.69L1089.39 10.5024H1091.5L1091.69 11.1195L1091.15 11.6282L1093.48 11.6929L1093.84 12.5354L1091.21 12.4375L1091.08 11.789L1089.43 11.4324L1088.55 10.9464L1086.59 10.9622C1093.03 6.27208 1100.94 3.49614 1109.5 3.49614C1119.36 3.49614 1128.37 7.18283 1135.25 13.2399L1134.78 14.0685L1132.99 14.773L1132.23 15.5963L1132.4 16.556L1133.33 16.6853L1133.89 18.0838L1135.49 17.4388L1135.76 19.3092H1135.27L1133.96 19.1152L1132.5 19.3599L1131.09 21.3527L1129.07 21.6691L1128.78 23.3962L1129.63 23.5972L1129.39 24.7073L1127.38 24.3052L1125.54 24.7073L1125.15 25.7299L1125.47 27.8765L1126.55 28.3817L1128.36 28.3712L1129.58 28.2611L1129.96 27.2892L1131.86 24.8086L1133.12 25.0656L1134.36 23.9468L1134.59 24.8209L1137.63 26.8749L1137.26 27.3748L1135.89 27.3014L1136.42 28.0496L1137.26 28.2349L1138.25 27.8223L1138.23 26.6301L1138.67 26.4099L1138.32 26.0358L1136.28 24.903L1135.75 23.3979H1137.44L1137.98 23.9329L1139.43 25.1862L1139.49 26.7018L1141 28.3065L1141.56 26.1075L1142.61 25.5376L1142.8 27.3363L1143.82 28.4551L1145.85 28.4202C1146.25 29.4323 1146.6 30.4619 1146.91 31.5125L1146.7 31.7083ZM1147.33 33.6766L1147.45 33.5333C1147.5 33.7535 1147.56 33.9738 1147.61 34.1975L1147.33 33.6766Z" fill="#FFBA08"/>
<path d="M1073.61 26.0183V27.235C1074.04 26.2421 1074.5 25.2736 1075.01 24.3244L1073.61 26.0183Z" fill="#FFBA08"/>
</g>
<path d="M808.812 128.352C808.812 126.976 809.092 125.776 809.652 124.752C810.212 123.712 810.988 122.912 811.98 122.352C812.972 121.776 814.108 121.488 815.388 121.488C817.036 121.488 818.396 121.904 819.468 122.736C820.556 123.552 821.284 124.704 821.652 126.192H818.028C817.836 125.616 817.508 125.168 817.044 124.848C816.596 124.512 816.036 124.344 815.364 124.344C814.404 124.344 813.644 124.696 813.084 125.4C812.524 126.088 812.244 127.072 812.244 128.352C812.244 129.616 812.524 130.6 813.084 131.304C813.644 131.992 814.404 132.336 815.364 132.336C816.724 132.336 817.612 131.728 818.028 130.512H821.652C821.284 131.952 820.556 133.096 819.468 133.944C818.38 134.792 817.02 135.216 815.388 135.216C814.108 135.216 812.972 134.936 811.98 134.376C810.988 133.8 810.212 133 809.652 131.976C809.092 130.936 808.812 129.728 808.812 128.352ZM827.473 117.24V135H824.113V117.24H827.473ZM829.929 128.304C829.929 126.96 830.193 125.768 830.721 124.728C831.265 123.688 831.993 122.888 832.905 122.328C833.833 121.768 834.865 121.488 836.001 121.488C836.993 121.488 837.857 121.688 838.593 122.088C839.345 122.488 839.945 122.992 840.393 123.6V121.704H843.777V135H840.393V133.056C839.961 133.68 839.361 134.2 838.593 134.616C837.841 135.016 836.969 135.216 835.977 135.216C834.857 135.216 833.833 134.928 832.905 134.352C831.993 133.776 831.265 132.968 830.721 131.928C830.193 130.872 829.929 129.664 829.929 128.304ZM840.393 128.352C840.393 127.536 840.233 126.84 839.913 126.264C839.593 125.672 839.161 125.224 838.617 124.92C838.073 124.6 837.489 124.44 836.865 124.44C836.241 124.44 835.665 124.592 835.137 124.896C834.609 125.2 834.177 125.648 833.841 126.24C833.521 126.816 833.361 127.504 833.361 128.304C833.361 129.104 833.521 129.808 833.841 130.416C834.177 131.008 834.609 131.464 835.137 131.784C835.681 132.104 836.257 132.264 836.865 132.264C837.489 132.264 838.073 132.112 838.617 131.808C839.161 131.488 839.593 131.04 839.913 130.464C840.233 129.872 840.393 129.168 840.393 128.352ZM839.937 118.248L834.417 120.768V118.368L839.937 115.512V118.248ZM852.146 135.216C851.058 135.216 850.082 135.024 849.218 134.64C848.354 134.24 847.666 133.704 847.154 133.032C846.658 132.36 846.386 131.616 846.338 130.8H849.722C849.786 131.312 850.034 131.736 850.466 132.072C850.914 132.408 851.466 132.576 852.122 132.576C852.762 132.576 853.258 132.448 853.61 132.192C853.978 131.936 854.162 131.608 854.162 131.208C854.162 130.776 853.938 130.456 853.49 130.248C853.058 130.024 852.362 129.784 851.402 129.528C850.41 129.288 849.594 129.04 848.954 128.784C848.33 128.528 847.786 128.136 847.322 127.608C846.874 127.08 846.65 126.368 846.65 125.472C846.65 124.736 846.858 124.064 847.274 123.456C847.706 122.848 848.314 122.368 849.098 122.016C849.898 121.664 850.834 121.488 851.906 121.488C853.49 121.488 854.754 121.888 855.698 122.688C856.642 123.472 857.162 124.536 857.258 125.88H854.042C853.994 125.352 853.77 124.936 853.37 124.632C852.986 124.312 852.466 124.152 851.81 124.152C851.202 124.152 850.73 124.264 850.394 124.488C850.074 124.712 849.914 125.024 849.914 125.424C849.914 125.872 850.138 126.216 850.586 126.456C851.034 126.68 851.73 126.912 852.674 127.152C853.634 127.392 854.426 127.64 855.05 127.896C855.674 128.152 856.21 128.552 856.658 129.096C857.122 129.624 857.362 130.328 857.378 131.208C857.378 131.976 857.162 132.664 856.73 133.272C856.314 133.88 855.706 134.36 854.906 134.712C854.122 135.048 853.202 135.216 852.146 135.216ZM865.224 135.216C864.136 135.216 863.16 135.024 862.296 134.64C861.432 134.24 860.744 133.704 860.232 133.032C859.736 132.36 859.464 131.616 859.416 130.8H862.8C862.864 131.312 863.112 131.736 863.544 132.072C863.992 132.408 864.544 132.576 865.2 132.576C865.84 132.576 866.336 132.448 866.688 132.192C867.056 131.936 867.24 131.608 867.24 131.208C867.24 130.776 867.016 130.456 866.568 130.248C866.136 130.024 865.44 129.784 864.48 129.528C863.488 129.288 862.672 129.04 862.032 128.784C861.408 128.528 860.864 128.136 860.4 127.608C859.952 127.08 859.728 126.368 859.728 125.472C859.728 124.736 859.936 124.064 860.352 123.456C860.784 122.848 861.392 122.368 862.176 122.016C862.976 121.664 863.912 121.488 864.984 121.488C866.568 121.488 867.832 121.888 868.776 122.688C869.72 123.472 870.24 124.536 870.336 125.88H867.12C867.072 125.352 866.848 124.936 866.448 124.632C866.064 124.312 865.544 124.152 864.888 124.152C864.28 124.152 863.808 124.264 863.472 124.488C863.152 124.712 862.992 125.024 862.992 125.424C862.992 125.872 863.216 126.216 863.664 126.456C864.112 126.68 864.808 126.912 865.752 127.152C866.712 127.392 867.504 127.64 868.128 127.896C868.752 128.152 869.288 128.552 869.736 129.096C870.2 129.624 870.44 130.328 870.456 131.208C870.456 131.976 870.24 132.664 869.808 133.272C869.392 133.88 868.784 134.36 867.984 134.712C867.2 135.048 866.28 135.216 865.224 135.216ZM874.919 120.12C874.327 120.12 873.831 119.936 873.431 119.568C873.047 119.184 872.855 118.712 872.855 118.152C872.855 117.592 873.047 117.128 873.431 116.76C873.831 116.376 874.327 116.184 874.919 116.184C875.511 116.184 875.999 116.376 876.383 116.76C876.783 117.128 876.983 117.592 876.983 118.152C876.983 118.712 876.783 119.184 876.383 119.568C875.999 119.936 875.511 120.12 874.919 120.12ZM876.575 121.704V135H873.215V121.704H876.575ZM879.03 128.352C879.03 126.976 879.31 125.776 879.87 124.752C880.43 123.712 881.206 122.912 882.198 122.352C883.19 121.776 884.326 121.488 885.606 121.488C887.254 121.488 888.614 121.904 889.686 122.736C890.774 123.552 891.502 124.704 891.87 126.192H888.246C888.054 125.616 887.726 125.168 887.262 124.848C886.814 124.512 886.254 124.344 885.582 124.344C884.622 124.344 883.862 124.696 883.302 125.4C882.742 126.088 882.462 127.072 882.462 128.352C882.462 129.616 882.742 130.6 883.302 131.304C883.862 131.992 884.622 132.336 885.582 132.336C886.942 132.336 887.83 131.728 888.246 130.512H891.87C891.502 131.952 890.774 133.096 889.686 133.944C888.598 134.792 887.238 135.216 885.606 135.216C884.326 135.216 883.19 134.936 882.198 134.376C881.206 133.8 880.43 133 879.87 131.976C879.31 130.936 879.03 129.728 879.03 128.352ZM900.236 135.216C898.956 135.216 897.804 134.936 896.78 134.376C895.756 133.8 894.948 132.992 894.356 131.952C893.78 130.912 893.492 129.712 893.492 128.352C893.492 126.992 893.788 125.792 894.38 124.752C894.988 123.712 895.812 122.912 896.852 122.352C897.892 121.776 899.052 121.488 900.332 121.488C901.612 121.488 902.772 121.776 903.812 122.352C904.852 122.912 905.668 123.712 906.26 124.752C906.868 125.792 907.172 126.992 907.172 128.352C907.172 129.712 906.86 130.912 906.236 131.952C905.628 132.992 904.796 133.8 903.74 134.376C902.7 134.936 901.532 135.216 900.236 135.216ZM900.236 132.288C900.844 132.288 901.412 132.144 901.94 131.856C902.484 131.552 902.916 131.104 903.236 130.512C903.556 129.92 903.716 129.2 903.716 128.352C903.716 127.088 903.38 126.12 902.708 125.448C902.052 124.76 901.244 124.416 900.284 124.416C899.324 124.416 898.516 124.76 897.86 125.448C897.22 126.12 896.9 127.088 896.9 128.352C896.9 129.616 897.212 130.592 897.836 131.28C898.476 131.952 899.276 132.288 900.236 132.288Z" fill="#47585B"/>
<g clip-path="url(#clip1_39_24)">
<path d="M895.176 64.7451V61.377C895.176 58.3083 892.757 55.8007 889.726 55.6431V28.1786H893.078C894.236 28.1786 895.176 27.2397 895.176 26.0814V17.0618C895.176 16.0771 894.491 15.225 893.529 15.0135L857.951 7.18796C857.653 7.1226 857.346 7.1226 857.049 7.18796L821.471 15.0138C820.509 15.2253 819.824 16.0775 819.824 17.0621V26.0814C819.824 27.2397 820.764 28.1786 821.922 28.1786H825.274V55.6434C822.243 55.8007 819.824 58.3083 819.824 61.3773V64.7455C817.086 65.2387 815 67.6341 815 70.5126V75.7637C815 76.9221 815.939 77.861 817.097 77.861H821.922H893.078H897.903C899.061 77.861 900 76.9221 900 75.7637V70.5126C900 67.6341 897.914 65.2387 895.176 64.7451ZM824.019 61.377C824.019 60.5199 824.716 59.8226 825.573 59.8226H889.427C890.284 59.8226 890.981 60.5199 890.981 61.377V64.6469H824.019V61.377ZM835.438 55.6281H829.468V28.79H835.438V55.6281ZM858.669 28.1786V55.6281H856.331V28.1786H858.669ZM868.834 55.6281H862.864V28.79H868.834V55.6281ZM885.532 55.6281H879.562V28.79H885.532V55.6281ZM852.136 28.79V55.6281H846.166V28.79H852.136ZM819.194 70.5126C819.194 69.5912 819.944 68.8418 820.865 68.8418H821.921H824.019H890.981H893.078H894.134C895.055 68.8418 895.805 69.5915 895.805 70.5126V73.6665H890.98H824.019H819.194V70.5126ZM875.367 55.6281H873.029V28.1786H875.367V55.6281ZM824.019 18.748L857.5 11.3835L890.981 18.748V23.9838H824.019V18.748ZM841.971 28.1786V55.6281H839.633V28.1786H841.971Z" fill="#FFBA08"/>
</g>
<path d="M542.465 121.512C544.097 121.512 545.409 122.016 546.401 123.024C547.409 124.016 547.913 125.408 547.913 127.2V135H544.553V127.656C544.553 126.616 544.289 125.824 543.761 125.28C543.233 124.72 542.513 124.44 541.601 124.44C540.689 124.44 539.961 124.72 539.417 125.28C538.889 125.824 538.625 126.616 538.625 127.656V135H535.265V127.656C535.265 126.616 535.001 125.824 534.473 125.28C533.945 124.72 533.225 124.44 532.313 124.44C531.385 124.44 530.649 124.72 530.105 125.28C529.577 125.824 529.313 126.616 529.313 127.656V135H525.953V121.704H529.313V123.312C529.745 122.752 530.297 122.312 530.969 121.992C531.657 121.672 532.409 121.512 533.225 121.512C534.265 121.512 535.193 121.736 536.009 122.184C536.825 122.616 537.457 123.24 537.905 124.056C538.337 123.288 538.961 122.672 539.777 122.208C540.609 121.744 541.505 121.512 542.465 121.512ZM557.005 135.216C555.725 135.216 554.573 134.936 553.549 134.376C552.525 133.8 551.717 132.992 551.125 131.952C550.549 130.912 550.261 129.712 550.261 128.352C550.261 126.992 550.557 125.792 551.149 124.752C551.757 123.712 552.581 122.912 553.621 122.352C554.661 121.776 555.821 121.488 557.101 121.488C558.381 121.488 559.541 121.776 560.581 122.352C561.621 122.912 562.437 123.712 563.029 124.752C563.637 125.792 563.941 126.992 563.941 128.352C563.941 129.712 563.629 130.912 563.005 131.952C562.397 132.992 561.565 133.8 560.509 134.376C559.469 134.936 558.301 135.216 557.005 135.216ZM557.005 132.288C557.613 132.288 558.181 132.144 558.709 131.856C559.253 131.552 559.685 131.104 560.005 130.512C560.325 129.92 560.485 129.2 560.485 128.352C560.485 127.088 560.149 126.12 559.477 125.448C558.821 124.76 558.013 124.416 557.053 124.416C556.093 124.416 555.285 124.76 554.629 125.448C553.989 126.12 553.669 127.088 553.669 128.352C553.669 129.616 553.981 130.592 554.605 131.28C555.245 131.952 556.045 132.288 557.005 132.288ZM565.542 128.304C565.542 126.96 565.806 125.768 566.334 124.728C566.878 123.688 567.614 122.888 568.542 122.328C569.47 121.768 570.502 121.488 571.638 121.488C572.502 121.488 573.326 121.68 574.11 122.064C574.894 122.432 575.518 122.928 575.982 123.552V117.24H579.39V135H575.982V133.032C575.566 133.688 574.982 134.216 574.23 134.616C573.478 135.016 572.606 135.216 571.614 135.216C570.494 135.216 569.47 134.928 568.542 134.352C567.614 133.776 566.878 132.968 566.334 131.928C565.806 130.872 565.542 129.664 565.542 128.304ZM576.006 128.352C576.006 127.536 575.846 126.84 575.526 126.264C575.206 125.672 574.774 125.224 574.23 124.92C573.686 124.6 573.102 124.44 572.478 124.44C571.854 124.44 571.278 124.592 570.75 124.896C570.222 125.2 569.79 125.648 569.454 126.24C569.134 126.816 568.974 127.504 568.974 128.304C568.974 129.104 569.134 129.808 569.454 130.416C569.79 131.008 570.222 131.464 570.75 131.784C571.294 132.104 571.87 132.264 572.478 132.264C573.102 132.264 573.686 132.112 574.23 131.808C574.774 131.488 575.206 131.04 575.526 130.464C575.846 129.872 576.006 129.168 576.006 128.352ZM595.032 128.064C595.032 128.544 595 128.976 594.936 129.36H585.216C585.296 130.32 585.632 131.072 586.224 131.616C586.816 132.16 587.544 132.432 588.408 132.432C589.656 132.432 590.544 131.896 591.072 130.824H594.696C594.312 132.104 593.576 133.16 592.488 133.992C591.4 134.808 590.064 135.216 588.48 135.216C587.2 135.216 586.048 134.936 585.024 134.376C584.016 133.8 583.224 132.992 582.648 131.952C582.088 130.912 581.808 129.712 581.808 128.352C581.808 126.976 582.088 125.768 582.648 124.728C583.208 123.688 583.992 122.888 585 122.328C586.008 121.768 587.168 121.488 588.48 121.488C589.744 121.488 590.872 121.76 591.864 122.304C592.872 122.848 593.648 123.624 594.192 124.632C594.752 125.624 595.032 126.768 595.032 128.064ZM591.552 127.104C591.536 126.24 591.224 125.552 590.616 125.04C590.008 124.512 589.264 124.248 588.384 124.248C587.552 124.248 586.848 124.504 586.272 125.016C585.712 125.512 585.368 126.208 585.24 127.104H591.552ZM600.844 123.768C601.276 123.064 601.836 122.512 602.524 122.112C603.228 121.712 604.028 121.512 604.924 121.512V125.04H604.036C602.98 125.04 602.18 125.288 601.636 125.784C601.108 126.28 600.844 127.144 600.844 128.376V135H597.484V121.704H600.844V123.768ZM614.555 121.512C616.139 121.512 617.419 122.016 618.395 123.024C619.371 124.016 619.859 125.408 619.859 127.2V135H616.499V127.656C616.499 126.6 616.235 125.792 615.707 125.232C615.179 124.656 614.459 124.368 613.547 124.368C612.619 124.368 611.883 124.656 611.339 125.232C610.811 125.792 610.547 126.6 610.547 127.656V135H607.187V121.704H610.547V123.36C610.995 122.784 611.563 122.336 612.251 122.016C612.955 121.68 613.723 121.512 614.555 121.512ZM628.958 135.216C627.678 135.216 626.526 134.936 625.502 134.376C624.478 133.8 623.67 132.992 623.078 131.952C622.502 130.912 622.214 129.712 622.214 128.352C622.214 126.992 622.51 125.792 623.102 124.752C623.71 123.712 624.534 122.912 625.574 122.352C626.614 121.776 627.774 121.488 629.054 121.488C630.334 121.488 631.494 121.776 632.534 122.352C633.574 122.912 634.39 123.712 634.982 124.752C635.59 125.792 635.894 126.992 635.894 128.352C635.894 129.712 635.582 130.912 634.958 131.952C634.35 132.992 633.518 133.8 632.462 134.376C631.422 134.936 630.254 135.216 628.958 135.216ZM628.958 132.288C629.566 132.288 630.134 132.144 630.662 131.856C631.206 131.552 631.638 131.104 631.958 130.512C632.278 129.92 632.438 129.2 632.438 128.352C632.438 127.088 632.102 126.12 631.43 125.448C630.774 124.76 629.966 124.416 629.006 124.416C628.046 124.416 627.238 124.76 626.582 125.448C625.942 126.12 625.622 127.088 625.622 128.352C625.622 129.616 625.934 130.592 626.558 131.28C627.198 131.952 627.998 132.288 628.958 132.288Z" fill="#47585B"/>
<path d="M570.964 34.418C570.176 34.418 569.538 35.0566 569.538 35.8442V79.0106C569.538 79.7982 570.176 80.4368 570.964 80.4368C571.751 80.4368 572.39 79.7982 572.39 79.0106V35.8442C572.39 35.0564 571.751 34.418 570.964 34.418Z" fill="#FFBA08"/>
<path d="M577.426 34.418C576.639 34.418 576 35.0566 576 35.8442V79.0106C576 79.7982 576.639 80.4368 577.426 80.4368C578.214 80.4368 578.852 79.7982 578.852 79.0106V35.8442C578.852 35.0564 578.214 34.418 577.426 34.418Z" fill="#FFBA08"/>
<path d="M583.426 34.418C582.639 34.418 582 35.0566 582 35.8442V79.0106C582 79.7982 582.639 80.4368 583.426 80.4368C584.214 80.4368 584.852 79.7982 584.852 79.0106V35.8442C584.852 35.0564 584.214 34.418 583.426 34.418Z" fill="#FFBA08"/>
<path d="M590.036 34.418C589.249 34.418 588.61 35.0566 588.61 35.8442V79.0106C588.61 79.7982 589.249 80.4368 590.036 80.4368C590.824 80.4368 591.463 79.7982 591.463 79.0106V35.8442C591.463 35.0564 590.824 34.418 590.036 34.418Z" fill="#FFBA08"/>
<path d="M607.026 82.1476H598.28V31.4706C598.28 30.6829 597.641 30.0444 596.854 30.0444H595.228V17.0186C595.228 16.2309 594.589 15.5924 593.802 15.5924H591.354V5.60909C591.354 4.82145 590.716 4.1829 589.928 4.1829H581.926C581.926 4.1829 581.288 4.1829 580.5 4.1829C579.074 4.1829 579.074 6.93962 579.074 4.1829H571.072C570.284 4.1829 569.646 4.82145 569.646 5.60909V15.5924H567.199C566.411 15.5924 565.772 16.2309 565.772 17.0186V30.0444H564.147C563.359 30.0444 562.72 30.6829 562.72 31.4706V82.1476H553.974C553.187 82.1476 552.548 82.7862 552.548 83.5738C552.548 84.3614 553.187 85 553.974 85H607.026C607.813 85 608.452 84.3614 608.452 83.5738C608.452 82.7862 607.813 82.1476 607.026 82.1476ZM572.498 7.03527H588.502V15.5924H587.166V10.394C587.166 9.6064 586.528 8.96785 585.74 8.96785C584.952 8.96785 584.314 9.6064 584.314 10.394V15.5924H581.926V10.394C581.926 9.6064 581.288 8.96785 580.5 8.96785C579.712 8.96785 579.074 9.6064 579.074 10.394V15.5924H576.686V10.394C576.686 9.6064 576.048 8.96785 575.26 8.96785C574.473 8.96785 573.834 9.6064 573.834 10.394V15.5924H572.498L572.498 7.03527ZM568.625 18.4447H592.375V30.0444H589.786V20.6949C589.786 19.9072 589.148 19.2687 588.36 19.2687C587.572 19.2687 586.934 19.9072 586.934 20.6949V30.0444H584.546V20.6949C584.546 19.9072 583.908 19.2687 583.12 19.2687C582.332 19.2687 581.694 19.9072 581.694 20.6949V30.0444H579.306V20.6949C579.306 19.9072 578.668 19.2687 577.88 19.2687C577.092 19.2687 576.454 19.9072 576.454 20.6949V30.0444H574.066V20.6949C574.066 19.9072 573.428 19.2687 572.64 19.2687C571.853 19.2687 571.214 19.9072 571.214 20.6949V30.0444H568.625V18.4447ZM565.573 82.1476V32.8967H595.427V82.1476H565.573Z" fill="#FFBA08"/>
<path d="M299.426 123.624C299.858 123.016 300.45 122.512 301.202 122.112C301.97 121.696 302.842 121.488 303.818 121.488C304.954 121.488 305.978 121.768 306.89 122.328C307.818 122.888 308.546 123.688 309.074 124.728C309.618 125.752 309.89 126.944 309.89 128.304C309.89 129.664 309.618 130.872 309.074 131.928C308.546 132.968 307.818 133.776 306.89 134.352C305.978 134.928 304.954 135.216 303.818 135.216C302.842 135.216 301.978 135.016 301.226 134.616C300.49 134.216 299.89 133.712 299.426 133.104V141.336H296.066V121.704H299.426V123.624ZM306.458 128.304C306.458 127.504 306.29 126.816 305.954 126.24C305.634 125.648 305.202 125.2 304.658 124.896C304.13 124.592 303.554 124.44 302.93 124.44C302.322 124.44 301.746 124.6 301.202 124.92C300.674 125.224 300.242 125.672 299.906 126.264C299.586 126.856 299.426 127.552 299.426 128.352C299.426 129.152 299.586 129.848 299.906 130.44C300.242 131.032 300.674 131.488 301.202 131.808C301.746 132.112 302.322 132.264 302.93 132.264C303.554 132.264 304.13 132.104 304.658 131.784C305.202 131.464 305.634 131.008 305.954 130.416C306.29 129.824 306.458 129.12 306.458 128.304ZM315.692 123.768C316.124 123.064 316.684 122.512 317.372 122.112C318.076 121.712 318.876 121.512 319.772 121.512V125.04H318.884C317.828 125.04 317.028 125.288 316.484 125.784C315.956 126.28 315.692 127.144 315.692 128.376V135H312.332V121.704H315.692V123.768ZM321.171 128.304C321.171 126.96 321.435 125.768 321.963 124.728C322.507 123.688 323.235 122.888 324.147 122.328C325.075 121.768 326.107 121.488 327.243 121.488C328.235 121.488 329.099 121.688 329.835 122.088C330.587 122.488 331.187 122.992 331.635 123.6V121.704H335.019V135H331.635V133.056C331.203 133.68 330.603 134.2 329.835 134.616C329.083 135.016 328.211 135.216 327.219 135.216C326.099 135.216 325.075 134.928 324.147 134.352C323.235 133.776 322.507 132.968 321.963 131.928C321.435 130.872 321.171 129.664 321.171 128.304ZM331.635 128.352C331.635 127.536 331.475 126.84 331.155 126.264C330.835 125.672 330.403 125.224 329.859 124.92C329.315 124.6 328.731 124.44 328.107 124.44C327.483 124.44 326.907 124.592 326.379 124.896C325.851 125.2 325.419 125.648 325.083 126.24C324.763 126.816 324.603 127.504 324.603 128.304C324.603 129.104 324.763 129.808 325.083 130.416C325.419 131.008 325.851 131.464 326.379 131.784C326.923 132.104 327.499 132.264 328.107 132.264C328.731 132.264 329.315 132.112 329.859 131.808C330.403 131.488 330.835 131.04 331.155 130.464C331.475 129.872 331.635 129.168 331.635 128.352ZM340.005 120.12C339.413 120.12 338.917 119.936 338.517 119.568C338.133 119.184 337.941 118.712 337.941 118.152C337.941 117.592 338.133 117.128 338.517 116.76C338.917 116.376 339.413 116.184 340.005 116.184C340.597 116.184 341.085 116.376 341.469 116.76C341.869 117.128 342.069 117.592 342.069 118.152C342.069 118.712 341.869 119.184 341.469 119.568C341.085 119.936 340.597 120.12 340.005 120.12ZM341.661 121.704V135H338.301V121.704H341.661ZM344.116 128.304C344.116 126.96 344.38 125.768 344.908 124.728C345.452 123.688 346.18 122.888 347.092 122.328C348.02 121.768 349.052 121.488 350.188 121.488C351.18 121.488 352.044 121.688 352.78 122.088C353.532 122.488 354.132 122.992 354.58 123.6V121.704H357.964V135H354.58V133.056C354.148 133.68 353.548 134.2 352.78 134.616C352.028 135.016 351.156 135.216 350.164 135.216C349.044 135.216 348.02 134.928 347.092 134.352C346.18 133.776 345.452 132.968 344.908 131.928C344.38 130.872 344.116 129.664 344.116 128.304ZM354.58 128.352C354.58 127.536 354.42 126.84 354.1 126.264C353.78 125.672 353.348 125.224 352.804 124.92C352.26 124.6 351.676 124.44 351.052 124.44C350.428 124.44 349.852 124.592 349.324 124.896C348.796 125.2 348.364 125.648 348.028 126.24C347.708 126.816 347.548 127.504 347.548 128.304C347.548 129.104 347.708 129.808 348.028 130.416C348.364 131.008 348.796 131.464 349.324 131.784C349.868 132.104 350.444 132.264 351.052 132.264C351.676 132.264 352.26 132.112 352.804 131.808C353.348 131.488 353.78 131.04 354.1 130.464C354.42 129.872 354.58 129.168 354.58 128.352Z" fill="#47585B"/>
<g clip-path="url(#clip2_39_24)">
<path d="M369.703 78.3348H324.605C327.05 70.6885 328.422 60.797 328.422 50.4554C328.422 27.5194 314.22 9.24095 313.616 8.47424C313.072 7.7845 312.242 7.38211 311.364 7.38211C310.486 7.38211 309.656 7.7845 309.113 8.47424C308.508 9.24095 294.307 27.5197 294.307 50.4554C294.307 60.797 295.678 70.6885 298.123 78.3348H290.867C289.284 78.3348 288 79.6184 288 81.2016C288 82.7848 289.284 84.0684 290.867 84.0684H369.703C371.287 84.0684 372.57 82.7848 372.57 81.2016C372.57 79.6184 371.286 78.3348 369.703 78.3348ZM318.55 78.3348H314.231V20.1204C318.079 27.1908 322.688 38.2145 322.688 50.4554C322.688 61.0746 321.191 71.0929 318.55 78.3348ZM300.041 50.4554C300.041 38.2139 304.65 27.1903 308.498 20.1204V78.3348H304.179C301.538 71.0929 300.041 61.0746 300.041 50.4554Z" fill="#FFBA08"/>
<path d="M364.258 23.0058C364.258 15.654 358.278 9.67311 350.926 9.67311C343.574 9.67311 337.593 15.654 337.593 23.0058C337.593 30.3576 343.574 36.3385 350.926 36.3385C358.278 36.3385 364.258 30.3576 364.258 23.0058ZM350.926 30.6052C346.736 30.6052 343.326 27.196 343.326 23.0058C343.326 18.8156 346.736 15.4065 350.926 15.4065C355.116 15.4065 358.525 18.8156 358.525 23.0058C358.525 27.196 355.116 30.6052 350.926 30.6052Z" fill="#FFBA08"/>
<path d="M350.926 9.04315C352.509 9.04315 353.793 7.75957 353.793 6.17633V3.79776C353.793 2.21453 352.509 0.930946 350.926 0.930946C349.342 0.930946 348.059 2.21453 348.059 3.79776V6.17633C348.059 7.75957 349.342 9.04315 350.926 9.04315Z" fill="#FFBA08"/>
<path d="M348.059 39.8347V42.2132C348.059 43.7965 349.342 45.08 350.926 45.08C352.509 45.08 353.793 43.7965 353.793 42.2132V39.8347C353.793 38.2514 352.509 36.9678 350.926 36.9678C349.342 36.9681 348.059 38.2517 348.059 39.8347Z" fill="#FFBA08"/>
<path d="M364.888 23.0058C364.888 24.589 366.171 25.8726 367.755 25.8726H370.133C371.716 25.8726 373 24.589 373 23.0058C373 21.4226 371.716 20.139 370.133 20.139H367.755C366.172 20.139 364.888 21.4229 364.888 23.0058Z" fill="#FFBA08"/>
<path d="M331.718 25.8726H334.097C335.68 25.8726 336.964 24.589 336.964 23.0058C336.964 21.4226 335.68 20.139 334.097 20.139H331.718C330.135 20.139 328.852 21.4226 328.852 23.0058C328.852 24.589 330.135 25.8726 331.718 25.8726Z" fill="#FFBA08"/>
<path d="M362.825 13.9729C363.559 13.9729 364.293 13.693 364.853 13.1332L366.535 11.4512C367.654 10.3316 367.654 8.51631 366.535 7.397C365.415 6.27769 363.6 6.27769 362.48 7.397L360.798 9.07897C359.679 10.1986 359.679 12.0139 360.798 13.1332C361.358 13.693 362.092 13.9729 362.825 13.9729Z" fill="#FFBA08"/>
<path d="M336.999 32.8784L335.317 34.5604C334.197 35.68 334.197 37.4953 335.317 38.6146C335.877 39.1741 336.61 39.4543 337.344 39.4543C338.078 39.4543 338.811 39.1744 339.371 38.6146L341.053 36.9326C342.173 35.813 342.173 33.9977 341.053 32.8784C339.934 31.7591 338.119 31.7591 336.999 32.8784Z" fill="#FFBA08"/>
<path d="M362.48 38.6146C363.04 39.1741 363.774 39.4543 364.507 39.4543C365.241 39.4543 365.975 39.1744 366.535 38.6146C367.654 37.495 367.654 35.6797 366.535 34.5604L364.853 32.8784C363.733 31.7591 361.918 31.7591 360.798 32.8784C359.679 33.998 359.679 35.8133 360.798 36.9326L362.48 38.6146Z" fill="#FFBA08"/>
<path d="M336.999 13.1335C337.559 13.693 338.292 13.9732 339.026 13.9732C339.76 13.9732 340.493 13.6933 341.053 13.1335C342.173 12.0139 342.173 10.1986 341.053 9.07926L339.371 7.39729C338.251 6.27798 336.437 6.27798 335.317 7.39729C334.197 8.51688 334.197 10.3322 335.317 11.4515L336.999 13.1335Z" fill="#FFBA08"/>
</g>
<path d="M7.46172 131.904L10.8217 121.704H14.3977L9.47772 135H5.39772L0.501719 121.704H4.10172L7.46172 131.904ZM17.9889 120.12C17.3969 120.12 16.9009 119.936 16.5009 119.568C16.1169 119.184 15.9249 118.712 15.9249 118.152C15.9249 117.592 16.1169 117.128 16.5009 116.76C16.9009 116.376 17.3969 116.184 17.9889 116.184C18.5809 116.184 19.0689 116.376 19.4529 116.76C19.8529 117.128 20.0529 117.592 20.0529 118.152C20.0529 118.712 19.8529 119.184 19.4529 119.568C19.0689 119.936 18.5809 120.12 17.9889 120.12ZM19.6449 121.704V135H16.2849V121.704H19.6449ZM22.1006 128.304C22.1006 126.96 22.3646 125.768 22.8926 124.728C23.4366 123.688 24.1726 122.888 25.1006 122.328C26.0286 121.768 27.0606 121.488 28.1966 121.488C29.0606 121.488 29.8846 121.68 30.6686 122.064C31.4526 122.432 32.0766 122.928 32.5406 123.552V117.24H35.9486V135H32.5406V133.032C32.1246 133.688 31.5406 134.216 30.7886 134.616C30.0366 135.016 29.1646 135.216 28.1726 135.216C27.0526 135.216 26.0286 134.928 25.1006 134.352C24.1726 133.776 23.4366 132.968 22.8926 131.928C22.3646 130.872 22.1006 129.664 22.1006 128.304ZM32.5646 128.352C32.5646 127.536 32.4046 126.84 32.0846 126.264C31.7646 125.672 31.3326 125.224 30.7886 124.92C30.2446 124.6 29.6606 124.44 29.0366 124.44C28.4126 124.44 27.8366 124.592 27.3086 124.896C26.7806 125.2 26.3486 125.648 26.0126 126.24C25.6926 126.816 25.5326 127.504 25.5326 128.304C25.5326 129.104 25.6926 129.808 26.0126 130.416C26.3486 131.008 26.7806 131.464 27.3086 131.784C27.8526 132.104 28.4286 132.264 29.0366 132.264C29.6606 132.264 30.2446 132.112 30.7886 131.808C31.3326 131.488 31.7646 131.04 32.0846 130.464C32.4046 129.872 32.5646 129.168 32.5646 128.352ZM38.3662 128.304C38.3662 126.96 38.6302 125.768 39.1582 124.728C39.7022 123.688 40.4302 122.888 41.3422 122.328C42.2702 121.768 43.3022 121.488 44.4382 121.488C45.4302 121.488 46.2942 121.688 47.0302 122.088C47.7822 122.488 48.3822 122.992 48.8302 123.6V121.704H52.2142V135H48.8302V133.056C48.3982 133.68 47.7982 134.2 47.0302 134.616C46.2782 135.016 45.4062 135.216 44.4142 135.216C43.2942 135.216 42.2702 134.928 41.3422 134.352C40.4302 133.776 39.7022 132.968 39.1582 131.928C38.6302 130.872 38.3662 129.664 38.3662 128.304ZM48.8302 128.352C48.8302 127.536 48.6702 126.84 48.3502 126.264C48.0302 125.672 47.5982 125.224 47.0542 124.92C46.5102 124.6 45.9262 124.44 45.3022 124.44C44.6782 124.44 44.1022 124.592 43.5742 124.896C43.0462 125.2 42.6142 125.648 42.2782 126.24C41.9582 126.816 41.7982 127.504 41.7982 128.304C41.7982 129.104 41.9582 129.808 42.2782 130.416C42.6142 131.008 43.0462 131.464 43.5742 131.784C44.1182 132.104 44.6942 132.264 45.3022 132.264C45.9262 132.264 46.5102 132.112 47.0542 131.808C47.5982 131.488 48.0302 131.04 48.3502 130.464C48.6702 129.872 48.8302 129.168 48.8302 128.352ZM68.5826 121.512C70.1666 121.512 71.4466 122.016 72.4226 123.024C73.3986 124.016 73.8866 125.408 73.8866 127.2V135H70.5266V127.656C70.5266 126.6 70.2626 125.792 69.7346 125.232C69.2066 124.656 68.4866 124.368 67.5746 124.368C66.6466 124.368 65.9106 124.656 65.3666 125.232C64.8386 125.792 64.5746 126.6 64.5746 127.656V135H61.2146V121.704H64.5746V123.36C65.0226 122.784 65.5906 122.336 66.2786 122.016C66.9826 121.68 67.7506 121.512 68.5826 121.512ZM82.9858 135.216C81.7058 135.216 80.5538 134.936 79.5298 134.376C78.5058 133.8 77.6978 132.992 77.1058 131.952C76.5298 130.912 76.2418 129.712 76.2418 128.352C76.2418 126.992 76.5378 125.792 77.1298 124.752C77.7378 123.712 78.5618 122.912 79.6018 122.352C80.6418 121.776 81.8018 121.488 83.0818 121.488C84.3618 121.488 85.5218 121.776 86.5618 122.352C87.6018 122.912 88.4178 123.712 89.0098 124.752C89.6178 125.792 89.9218 126.992 89.9218 128.352C89.9218 129.712 89.6098 130.912 88.9858 131.952C88.3778 132.992 87.5458 133.8 86.4898 134.376C85.4498 134.936 84.2818 135.216 82.9858 135.216ZM82.9858 132.288C83.5938 132.288 84.1618 132.144 84.6898 131.856C85.2338 131.552 85.6658 131.104 85.9858 130.512C86.3058 129.92 86.4658 129.2 86.4658 128.352C86.4658 127.088 86.1298 126.12 85.4578 125.448C84.8018 124.76 83.9938 124.416 83.0338 124.416C82.0738 124.416 81.2658 124.76 80.6098 125.448C79.9698 126.12 79.6498 127.088 79.6498 128.352C79.6498 129.616 79.9618 130.592 80.5858 131.28C81.2258 131.952 82.0258 132.288 82.9858 132.288ZM96.2985 124.464V130.896C96.2985 131.344 96.4025 131.672 96.6105 131.88C96.8345 132.072 97.2025 132.168 97.7145 132.168H99.2745V135H97.1625C94.3305 135 92.9145 133.624 92.9145 130.872V124.464H91.3305V121.704H92.9145V118.416H96.2985V121.704H99.2745V124.464H96.2985ZM114.243 121.704V135H110.859V133.32C110.427 133.896 109.859 134.352 109.155 134.688C108.467 135.008 107.715 135.168 106.899 135.168C105.859 135.168 104.939 134.952 104.139 134.52C103.339 134.072 102.707 133.424 102.243 132.576C101.795 131.712 101.571 130.688 101.571 129.504V121.704H104.931V129.024C104.931 130.08 105.195 130.896 105.723 131.472C106.251 132.032 106.971 132.312 107.883 132.312C108.811 132.312 109.539 132.032 110.067 131.472C110.595 130.896 110.859 130.08 110.859 129.024V121.704H114.243ZM120.918 123.768C121.35 123.064 121.91 122.512 122.598 122.112C123.302 121.712 124.102 121.512 124.998 121.512V125.04H124.11C123.054 125.04 122.254 125.288 121.71 125.784C121.182 126.28 120.918 127.144 120.918 128.376V135H117.558V121.704H120.918V123.768ZM134.629 121.512C136.213 121.512 137.493 122.016 138.469 123.024C139.445 124.016 139.933 125.408 139.933 127.2V135H136.573V127.656C136.573 126.6 136.309 125.792 135.781 125.232C135.253 124.656 134.533 124.368 133.621 124.368C132.693 124.368 131.957 124.656 131.413 125.232C130.885 125.792 130.621 126.6 130.621 127.656V135H127.261V121.704H130.621V123.36C131.069 122.784 131.637 122.336 132.325 122.016C133.029 121.68 133.797 121.512 134.629 121.512ZM142.265 128.304C142.265 126.96 142.529 125.768 143.057 124.728C143.601 123.688 144.329 122.888 145.241 122.328C146.169 121.768 147.201 121.488 148.337 121.488C149.329 121.488 150.193 121.688 150.929 122.088C151.681 122.488 152.281 122.992 152.729 123.6V121.704H156.113V135H152.729V133.056C152.297 133.68 151.697 134.2 150.929 134.616C150.177 135.016 149.305 135.216 148.313 135.216C147.193 135.216 146.169 134.928 145.241 134.352C144.329 133.776 143.601 132.968 143.057 131.928C142.529 130.872 142.265 129.664 142.265 128.304ZM152.729 128.352C152.729 127.536 152.569 126.84 152.249 126.264C151.929 125.672 151.497 125.224 150.953 124.92C150.409 124.6 149.825 124.44 149.201 124.44C148.577 124.44 148.001 124.592 147.473 124.896C146.945 125.2 146.513 125.648 146.177 126.24C145.857 126.816 145.697 127.504 145.697 128.304C145.697 129.104 145.857 129.808 146.177 130.416C146.513 131.008 146.945 131.464 147.473 131.784C148.017 132.104 148.593 132.264 149.201 132.264C149.825 132.264 150.409 132.112 150.953 131.808C151.497 131.488 151.929 131.04 152.249 130.464C152.569 129.872 152.729 129.168 152.729 128.352Z" fill="#47585B"/>
<g clip-path="url(#clip3_39_24)">
<path d="M107.192 0C98.425 0 91.1048 6.39275 89.6518 14.7608L68.8602 14.7605L56.3837 2.41004L51.639 6.13574L60.3516 14.7608H47.9574C46.7359 14.7608 45.6372 15.5029 45.181 16.636C44.7248 17.769 45.0033 19.0655 45.8836 19.9118L74.5687 47.4752V79.0142H64.5364C62.8836 79.0142 61.5434 80.3545 61.5434 82.0073C61.5434 83.66 62.8836 85.0003 64.5364 85.0003H90.5868C92.2392 85.0003 93.5795 83.66 93.5795 82.0073C93.5795 80.3545 92.2392 79.0142 90.5868 79.0142H80.5542V47.4755L96.5625 32.0931C99.6145 34.3789 103.296 35.6164 107.192 35.6164C117.011 35.6164 125 27.6279 125 17.8082C125 7.98857 117.011 0 107.192 0ZM116.896 24.549L112.25 19.9032H118.824C118.519 21.6055 117.849 23.1818 116.896 24.549ZM109.287 12.75V6.17552C110.989 6.48118 112.566 7.15145 113.933 8.10391L109.287 12.75ZM105.097 12.75L100.454 8.10677C101.82 7.15345 103.396 6.48232 105.097 6.1761V12.75ZM109.287 22.8661L113.933 27.512C112.566 28.4644 110.989 29.1347 109.287 29.4403V22.8661ZM112.25 15.713L116.896 11.0672C117.848 12.4343 118.519 14.0107 118.824 15.713H112.25ZM97.4906 11.07L101.181 14.7608H95.7715C96.1298 13.4226 96.7182 12.1779 97.4906 11.07ZM99.7315 20.7466L77.562 42.0495L55.3916 20.7463L99.7315 20.7466ZM105.097 23.8927V29.4432C103.625 29.1819 102.228 28.6493 100.966 27.8623L105.097 23.8927Z" fill="#FFBA08"/>
</g>
<defs>
<clipPath id="clip0_39_24">
<rect width="85" height="85" fill="white" transform="translate(1067)"/>
</clipPath>
<clipPath id="clip1_39_24">
<rect width="85" height="85" fill="white" transform="translate(815)"/>
</clipPath>
<clipPath id="clip2_39_24">
<rect width="85" height="85" fill="white" transform="translate(288)"/>
</clipPath>
<clipPath id="clip3_39_24">
<rect width="85" height="85" fill="white" transform="translate(40)"/>
</clipPath>
</defs>
</svg>
